<mxfile host="app.diagrams.net" modified="2024-07-18T05:13:29.077Z" agent="Mozilla/5.0 (Windows NT 10.0; Win64; x64) AppleWebKit/537.36 (KHTML, like Gecko) Chrome/126.0.0.0 Safari/537.36" etag="RRSHU2weZJHM3aGbhS_t" version="24.6.4" type="device">
  <diagram name="페이지-1" id="hkUpkyQfRMKP-bHNrYHr">
    <mxGraphModel dx="1195" dy="643" grid="1" gridSize="10" guides="1" tooltips="1" connect="1" arrows="1" fold="1" page="1" pageScale="1" pageWidth="827" pageHeight="1169" math="0" shadow="0">
      <root>
        <mxCell id="0" />
        <mxCell id="1" parent="0" />
        <mxCell id="ehrtUDtLnAOZT0-LPxlq-26" style="rounded=0;orthogonalLoop=1;jettySize=auto;html=1;entryX=0.5;entryY=0;entryDx=0;entryDy=0;" parent="1" source="ehrtUDtLnAOZT0-LPxlq-18" target="ehrtUDtLnAOZT0-LPxlq-19" edge="1">
          <mxGeometry relative="1" as="geometry" />
        </mxCell>
        <mxCell id="ehrtUDtLnAOZT0-LPxlq-27" style="rounded=0;orthogonalLoop=1;jettySize=auto;html=1;" parent="1" source="ehrtUDtLnAOZT0-LPxlq-18" target="ehrtUDtLnAOZT0-LPxlq-20" edge="1">
          <mxGeometry relative="1" as="geometry" />
        </mxCell>
        <mxCell id="ehrtUDtLnAOZT0-LPxlq-28" style="rounded=0;orthogonalLoop=1;jettySize=auto;html=1;entryX=0.5;entryY=0;entryDx=0;entryDy=0;" parent="1" source="ehrtUDtLnAOZT0-LPxlq-18" target="ehrtUDtLnAOZT0-LPxlq-21" edge="1">
          <mxGeometry relative="1" as="geometry" />
        </mxCell>
        <mxCell id="ehrtUDtLnAOZT0-LPxlq-29" style="rounded=0;orthogonalLoop=1;jettySize=auto;html=1;entryX=0.5;entryY=0;entryDx=0;entryDy=0;" parent="1" source="ehrtUDtLnAOZT0-LPxlq-18" target="ehrtUDtLnAOZT0-LPxlq-22" edge="1">
          <mxGeometry relative="1" as="geometry" />
        </mxCell>
        <mxCell id="ehrtUDtLnAOZT0-LPxlq-30" style="rounded=0;orthogonalLoop=1;jettySize=auto;html=1;entryX=0.5;entryY=0;entryDx=0;entryDy=0;" parent="1" source="ehrtUDtLnAOZT0-LPxlq-18" target="ehrtUDtLnAOZT0-LPxlq-23" edge="1">
          <mxGeometry relative="1" as="geometry" />
        </mxCell>
        <mxCell id="ehrtUDtLnAOZT0-LPxlq-31" style="rounded=0;orthogonalLoop=1;jettySize=auto;html=1;entryX=0.5;entryY=0;entryDx=0;entryDy=0;" parent="1" source="ehrtUDtLnAOZT0-LPxlq-18" target="ehrtUDtLnAOZT0-LPxlq-24" edge="1">
          <mxGeometry relative="1" as="geometry" />
        </mxCell>
        <mxCell id="ehrtUDtLnAOZT0-LPxlq-18" value="학생정보" style="rounded=1;arcSize=10;whiteSpace=wrap;html=1;align=center;" parent="1" vertex="1">
          <mxGeometry x="380" y="740" width="114" height="40" as="geometry" />
        </mxCell>
        <mxCell id="ehrtUDtLnAOZT0-LPxlq-19" value="학번" style="ellipse;whiteSpace=wrap;html=1;align=center;fontStyle=4;" parent="1" vertex="1">
          <mxGeometry x="170" y="1260" width="100" height="40" as="geometry" />
        </mxCell>
        <mxCell id="ehrtUDtLnAOZT0-LPxlq-20" value="학생이름" style="ellipse;whiteSpace=wrap;html=1;align=center;" parent="1" vertex="1">
          <mxGeometry x="286" y="1260" width="100" height="40" as="geometry" />
        </mxCell>
        <mxCell id="ehrtUDtLnAOZT0-LPxlq-21" value="학과" style="ellipse;whiteSpace=wrap;html=1;align=center;" parent="1" vertex="1">
          <mxGeometry x="402" y="1260" width="100" height="40" as="geometry" />
        </mxCell>
        <mxCell id="ehrtUDtLnAOZT0-LPxlq-22" value="학년" style="ellipse;whiteSpace=wrap;html=1;align=center;" parent="1" vertex="1">
          <mxGeometry x="518" y="1260" width="100" height="40" as="geometry" />
        </mxCell>
        <mxCell id="ehrtUDtLnAOZT0-LPxlq-23" value="전화번호" style="ellipse;whiteSpace=wrap;html=1;align=center;" parent="1" vertex="1">
          <mxGeometry x="634" y="1260" width="100" height="40" as="geometry" />
        </mxCell>
        <mxCell id="ehrtUDtLnAOZT0-LPxlq-24" value="주소" style="ellipse;whiteSpace=wrap;html=1;align=center;" parent="1" vertex="1">
          <mxGeometry x="750" y="1260" width="100" height="40" as="geometry" />
        </mxCell>
        <mxCell id="ehrtUDtLnAOZT0-LPxlq-60" style="rounded=0;orthogonalLoop=1;jettySize=auto;html=1;" parent="1" source="ehrtUDtLnAOZT0-LPxlq-45" target="ehrtUDtLnAOZT0-LPxlq-47" edge="1">
          <mxGeometry relative="1" as="geometry" />
        </mxCell>
        <mxCell id="ehrtUDtLnAOZT0-LPxlq-61" style="rounded=0;orthogonalLoop=1;jettySize=auto;html=1;" parent="1" source="ehrtUDtLnAOZT0-LPxlq-45" target="ehrtUDtLnAOZT0-LPxlq-57" edge="1">
          <mxGeometry relative="1" as="geometry" />
        </mxCell>
        <mxCell id="ehrtUDtLnAOZT0-LPxlq-45" value="과목정보" style="whiteSpace=wrap;html=1;align=center;" parent="1" vertex="1">
          <mxGeometry x="1026" y="750" width="330" height="40" as="geometry" />
        </mxCell>
        <mxCell id="ehrtUDtLnAOZT0-LPxlq-47" value="과목코드" style="ellipse;whiteSpace=wrap;html=1;align=center;fontStyle=4;" parent="1" vertex="1">
          <mxGeometry x="961" y="1260" width="100" height="40" as="geometry" />
        </mxCell>
        <mxCell id="ehrtUDtLnAOZT0-LPxlq-57" value="과목명" style="ellipse;whiteSpace=wrap;html=1;align=center;" parent="1" vertex="1">
          <mxGeometry x="1141" y="1260" width="100" height="40" as="geometry" />
        </mxCell>
        <mxCell id="-D1ZhDxxzWsOlvTnO_cm-22" value="" style="fontSize=12;html=1;endArrow=ERoneToMany;rounded=0;entryX=0;entryY=0.5;entryDx=0;entryDy=0;" edge="1" parent="1" source="ehrtUDtLnAOZT0-LPxlq-18" target="-D1ZhDxxzWsOlvTnO_cm-30">
          <mxGeometry width="100" height="100" relative="1" as="geometry">
            <mxPoint x="570" y="720" as="sourcePoint" />
            <mxPoint x="700" y="625" as="targetPoint" />
          </mxGeometry>
        </mxCell>
        <mxCell id="-D1ZhDxxzWsOlvTnO_cm-23" value="" style="fontSize=12;html=1;endArrow=ERoneToMany;rounded=0;entryX=1;entryY=0.5;entryDx=0;entryDy=0;" edge="1" parent="1" source="ehrtUDtLnAOZT0-LPxlq-45" target="-D1ZhDxxzWsOlvTnO_cm-30">
          <mxGeometry width="100" height="100" relative="1" as="geometry">
            <mxPoint x="890" y="733" as="sourcePoint" />
            <mxPoint x="860" y="625" as="targetPoint" />
          </mxGeometry>
        </mxCell>
        <mxCell id="-D1ZhDxxzWsOlvTnO_cm-26" value="성적정보" style="shape=rhombus;perimeter=rhombusPerimeter;whiteSpace=wrap;html=1;align=center;" vertex="1" parent="1">
          <mxGeometry x="720" y="730" width="120" height="60" as="geometry" />
        </mxCell>
        <mxCell id="-D1ZhDxxzWsOlvTnO_cm-28" value="" style="edgeStyle=entityRelationEdgeStyle;fontSize=12;html=1;endArrow=ERoneToMany;rounded=0;" edge="1" parent="1" source="ehrtUDtLnAOZT0-LPxlq-18" target="-D1ZhDxxzWsOlvTnO_cm-26">
          <mxGeometry width="100" height="100" relative="1" as="geometry">
            <mxPoint x="620" y="860" as="sourcePoint" />
            <mxPoint x="720" y="760" as="targetPoint" />
          </mxGeometry>
        </mxCell>
        <mxCell id="-D1ZhDxxzWsOlvTnO_cm-29" value="" style="fontSize=12;html=1;endArrow=ERoneToMany;rounded=0;entryX=1;entryY=0.5;entryDx=0;entryDy=0;exitX=0;exitY=0.5;exitDx=0;exitDy=0;" edge="1" parent="1" source="ehrtUDtLnAOZT0-LPxlq-45" target="-D1ZhDxxzWsOlvTnO_cm-26">
          <mxGeometry width="100" height="100" relative="1" as="geometry">
            <mxPoint x="760" y="800" as="sourcePoint" />
            <mxPoint x="986" y="800" as="targetPoint" />
          </mxGeometry>
        </mxCell>
        <mxCell id="-D1ZhDxxzWsOlvTnO_cm-30" value="수강신청" style="shape=rhombus;perimeter=rhombusPerimeter;whiteSpace=wrap;html=1;align=center;" vertex="1" parent="1">
          <mxGeometry x="730" y="590" width="120" height="60" as="geometry" />
        </mxCell>
      </root>
    </mxGraphModel>
  </diagram>
</mxfile>
